<?xml version="1.0" standalone="no"?><!DOCTYPE svg PUBLIC "-//W3C//DTD SVG 1.1//EN" "http://www.w3.org/Graphics/SVG/1.1/DTD/svg11.dtd"><svg t="1776439626709" class="icon" viewBox="0 0 1025 1024" version="1.1" xmlns="http://www.w3.org/2000/svg" p-id="18991" xmlns:xlink="http://www.w3.org/1999/xlink" width="200.1953125" height="200"><path d="M32 512c0 0 0 0 0 0 0 265.097 214.903 480 480 480 265.097 0 480-214.903 480-480 0 0 0 0 0 0 0-265.097-214.903-480-480-480-265.097 0-480 214.903-480 480z" fill="#5C958D" p-id="18992"></path><path d="M473.591 737.127c35.147 72.246 109.252 122.040 194.995 122.040 119.696 0 216.728-97.032 216.728-216.728 0-113.49-87.234-206.59-198.307-215.942v-162.81h-431.885v473.439h218.467z" fill="" p-id="18993"></path><path d="M231.581 240.144h215.942v94.688h-215.942z" fill="#FDBE43" p-id="18994"></path><path d="M447.523 240.144h215.942v94.688h-215.942z" fill="#F2A31C" p-id="18995"></path><path d="M231.581 334.83h215.942v94.688h-215.942z" fill="#D89302" p-id="18996"></path><path d="M447.523 334.83h215.942v94.688h-215.942z" fill="#BE8000" p-id="18997"></path><path d="M447.523 429.52h215.942v94.688h-215.942z" fill="#F2A31C" p-id="18998"></path><path d="M231.581 429.52h215.942v94.688h-215.942z" fill="#FDBE43" p-id="18999"></path><path d="M447.523 524.206h215.942v94.688h-215.942z" fill="#BE8000" p-id="19000"></path><path d="M231.581 524.206h215.942v94.688h-215.942z" fill="#D89302" p-id="19001"></path><path d="M447.523 618.896h215.942v94.687h-215.942z" fill="#F2A31C" p-id="19002"></path><path d="M231.581 618.896h215.942v94.687h-215.942z" fill="#FDBE43" p-id="19003"></path><path d="M428.314 618.896c0 119.696 97.032 216.728 216.728 216.728v-433.458c-119.695 0-216.728 97.032-216.728 216.728z" fill="#FDDA48" p-id="19004"></path><path d="M645.043 402.166v433.458c119.696 0 216.728-97.032 216.728-216.728s-97.032-216.728-216.728-216.728z" fill="#F5CC27" p-id="19005"></path><path d="M687.359 570.445c-12.266-10.904-22.829-16.357-35.438-16.357-14.652 0-21.806 4.088-21.806 17.718 0 25.897 87.909 27.259 87.909 89.273 0 33.052-17.377 58.949-53.154 67.466v36.12h-38.163v-34.074c-19.422-2.386-43.615-10.563-60.652-25.897l25.216-39.527c18.398 13.629 32.71 19.082 47.022 19.082 17.036 0 23.851-5.793 23.851-19.082 0-27.259-87.911-31.008-87.911-90.637 0-34.415 19.422-58.267 52.474-65.422v-35.437h38.163v34.756c21.468 3.407 37.822 14.311 51.452 28.622l-28.963 33.395z" fill="#BE8000" p-id="19006"></path></svg>